<svg version="1.1" id="Layer_1" xmlns="http://www.w3.org/2000/svg" xmlns:xlink="http://www.w3.org/1999/xlink" x="0px" y="0px"
	 width="100%" viewBox="0 0 189 189" enable-background="new 0 0 189 189" xml:space="preserve">
<path fill="#B3DCF2" opacity="1.000000" stroke="none" 
	d="
M0.999999,117.000000 
	C1.000000,114.629440 1.000000,112.258888 1.290991,109.152252 
	C2.047521,104.146729 2.363097,99.854668 3.002968,95.611519 
	C7.116863,68.331169 20.283571,46.160713 41.146259,28.366589 
	C54.099789,17.318314 68.661957,9.332081 85.298958,5.403893 
	C92.163239,3.783157 99.097542,2.459032 106.000000,1.000001 
	C109.361290,1.000000 112.722572,1.000000 116.821594,1.287019 
	C118.037941,1.701552 118.509743,1.899310 118.996132,1.946406 
	C135.297348,3.524801 149.532578,10.052485 160.813507,21.675699 
	C166.723923,27.765448 171.736282,34.415573 180.241638,37.113190 
	C180.984283,37.348732 181.882736,39.996777 181.468674,40.496296 
	C179.083420,43.373955 176.733368,46.639378 173.608093,48.471058 
	C166.920517,52.390568 162.037201,47.656799 157.300644,43.752907 
	C152.348358,39.671181 148.018417,34.855495 140.457001,35.871582 
	C135.150864,36.584602 132.379303,38.713722 133.157501,44.079735 
	C133.473328,46.257462 135.285446,48.350212 136.769409,50.198437 
	C139.666367,53.806469 142.601410,57.280807 139.400757,62.152012 
	C134.979141,68.881454 128.801636,71.890259 120.554642,70.587296 
	C116.751823,67.454338 113.234276,64.442215 109.493065,61.739712 
	C107.137802,60.038368 104.457199,57.668343 101.905067,57.646572 
	C98.829842,57.620335 94.911293,58.987621 92.857903,61.165813 
	C90.257019,63.924774 92.487976,67.327477 94.668442,70.059273 
	C96.000946,71.728706 97.443260,73.426239 98.281502,75.352562 
	C100.712898,80.940071 96.458656,86.580833 90.474197,85.506844 
	C87.991043,85.061211 85.775810,83.250252 83.368065,82.226387 
	C79.941483,80.769287 76.449760,79.465378 72.531425,78.015312 
	C48.999615,77.835289 32.868156,89.945038 20.650595,108.066895 
	C17.625360,112.554108 15.834070,118.427841 15.201418,123.865044 
	C13.582592,137.777725 17.463629,150.702957 25.496992,162.049133 
	C29.761663,168.072464 35.231495,173.242508 39.791992,178.830017 
	C38.364819,178.426315 37.183655,178.163956 36.258831,177.528519 
	C20.179203,166.480484 8.938354,151.882324 4.032068,132.817200 
	C2.696751,127.628342 1.993393,122.276848 0.999999,117.000000 
M64.092026,26.238260 
	C63.057285,27.282089 61.011307,28.576115 61.194984,29.318489 
	C61.597065,30.943615 62.980442,32.466686 64.326225,33.600277 
	C64.599335,33.830318 67.539902,31.885471 67.418762,31.414700 
	C66.967827,29.662399 65.753403,28.106575 64.092026,26.238260 
M48.242172,58.168270 
	C46.653072,58.276958 45.063976,58.385647 43.474876,58.494335 
	C43.715954,59.866444 43.530212,61.634495 44.325836,62.492172 
	C45.031113,63.252449 47.762203,63.497139 47.970257,63.105087 
	C48.656338,61.812260 48.603905,60.127522 48.242172,58.168270 
M47.222672,37.103554 
	C44.624481,36.875275 42.090611,37.030338 43.667496,40.607216 
	C44.107838,41.606052 46.222061,41.866955 47.568409,42.466377 
	C47.701969,40.766548 47.835529,39.066715 47.222672,37.103554 
z"/>
<path fill="#FFFFFF" opacity="0.000000" stroke="none" 
	d="
M120.745285,70.839104 
	C128.801636,71.890259 134.979141,68.881454 139.400757,62.152012 
	C142.601410,57.280807 139.666367,53.806469 136.769409,50.198437 
	C135.285446,48.350212 133.473328,46.257462 133.157501,44.079735 
	C132.379303,38.713722 135.150864,36.584602 140.457001,35.871582 
	C148.018417,34.855495 152.348358,39.671181 157.300644,43.752907 
	C162.037201,47.656799 166.920517,52.390568 173.608093,48.471058 
	C176.733368,46.639378 179.083420,43.373955 181.468674,40.496296 
	C181.882736,39.996777 180.984283,37.348732 180.241638,37.113190 
	C171.736282,34.415573 166.723923,27.765448 160.813507,21.675699 
	C149.532578,10.052485 135.297348,3.524801 118.996132,1.946406 
	C118.509743,1.899310 118.037941,1.701552 117.279663,1.287019 
	C141.286346,1.000000 165.572708,1.000000 190.000000,1.000000 
	C190.000000,52.020813 190.000000,103.041748 189.776855,154.509399 
	C189.553696,154.956131 189.105743,154.934616 189.061859,154.469666 
	C189.017960,145.245911 189.017960,136.487106 189.017960,129.157837 
	C182.222244,126.555176 176.400742,124.325638 170.020508,121.882103 
	C166.833572,125.532745 161.899689,128.393387 155.918655,127.141609 
	C150.612427,126.031059 145.537369,123.816002 139.839005,121.914558 
	C139.340439,122.295029 138.075928,123.358727 136.715866,124.281601 
	C129.190475,129.388046 122.053825,128.465149 116.793976,121.253494 
	C106.800049,107.551079 106.696114,82.848236 120.745285,70.839104 
z"/>
<path fill="#00BDF1" opacity="1.000000" stroke="none" 
	d="
M189.105743,154.934616 
	C189.105743,154.934616 189.553696,154.956131 189.776855,154.978058 
	C190.000000,158.692902 190.000000,162.385818 189.633118,166.542023 
	C188.230347,167.469681 187.083252,167.777359 186.175156,168.421829 
	C171.317413,178.966263 148.742020,178.778580 134.244949,167.814774 
	C129.386093,164.140121 124.750252,160.170578 120.028152,156.348511 
	C117.021660,159.069443 114.158356,161.771652 111.178162,164.338135 
	C100.055954,173.916336 87.518089,178.528946 72.599289,176.106552 
	C44.878651,171.605499 23.137037,145.151520 30.282427,115.823784 
	C34.180721,99.823540 43.741295,88.382843 59.119904,82.523712 
	C58.201035,83.642525 57.469265,84.540802 56.581608,85.241631 
	C36.303501,101.251854 38.810448,131.943344 61.474159,144.193420 
	C70.967743,149.324860 80.364677,150.105972 89.598251,143.240509 
	C90.518402,142.556335 92.742256,143.305222 94.238449,143.777435 
	C98.404816,145.092377 102.424141,147.470795 106.650627,147.876648 
	C116.263306,148.799713 123.885048,143.910187 130.741409,137.734589 
	C132.458481,136.188004 133.745926,134.041870 136.355865,136.897736 
	C140.037277,140.926041 143.691635,145.156097 148.051529,148.353699 
	C160.496536,157.481079 174.355835,159.378510 189.105743,154.934616 
z"/>
<path fill="#2ED3F7" opacity="1.000000" stroke="none" 
	d="
M59.234394,82.211197 
	C43.741295,88.382843 34.180721,99.823540 30.282427,115.823784 
	C23.137037,145.151520 44.878651,171.605499 72.599289,176.106552 
	C87.518089,178.528946 100.055954,173.916336 111.178162,164.338135 
	C114.158356,161.771652 117.021660,159.069443 120.028152,156.348511 
	C124.750252,160.170578 129.386093,164.140121 134.244949,167.814774 
	C148.742020,178.778580 171.317413,178.966263 186.175156,168.421829 
	C187.083252,167.777359 188.230347,167.469681 189.633118,167.002655 
	C190.000000,173.833328 189.724808,180.682724 190.122223,187.492874 
	C190.306366,190.648346 188.654388,189.951920 186.370392,189.668762 
	C183.354568,187.924561 181.041275,186.358917 178.548615,185.169006 
	C177.453918,184.646439 175.749008,184.388657 174.745255,184.878922 
	C171.718491,186.357269 168.899826,188.261719 166.000000,190.000000 
	C163.629440,190.000000 161.258896,190.000000 158.307434,189.677246 
	C155.219803,187.799652 152.768341,186.141937 150.174850,184.748581 
	C149.326157,184.292618 147.879639,184.097534 147.099396,184.515884 
	C143.982239,186.187210 141.019730,188.146957 138.000000,190.000000 
	C135.629440,190.000000 133.258896,190.000000 130.306244,189.677551 
	C127.341782,187.922165 125.035370,186.331757 122.541870,185.129272 
	C121.454163,184.604706 119.741295,184.382141 118.731339,184.877197 
	C115.709869,186.358307 112.895332,188.261566 110.000000,190.000000 
	C107.629440,190.000000 105.258888,190.000000 102.299950,189.676422 
	C99.332497,187.932800 97.005638,186.411850 94.549324,185.141083 
	C93.530327,184.613907 91.975464,184.073395 91.110306,184.482407 
	C87.645142,186.120514 84.354919,188.128693 81.000000,190.000000 
	C77.307091,190.000000 73.614182,190.000000 69.266312,189.648926 
	C58.758568,188.223160 49.777702,184.695465 41.200050,179.410049 
	C40.795395,178.971725 40.494095,178.846893 40.135365,178.828033 
	C40.125729,178.818604 40.157303,178.797745 40.157303,178.797745 
	C35.231495,173.242508 29.761663,168.072464 25.496992,162.049133 
	C17.463629,150.702957 13.582592,137.777725 15.201418,123.865044 
	C15.834070,118.427841 17.625360,112.554108 20.650595,108.066895 
	C32.868156,89.945038 48.999615,77.835289 72.239990,78.239227 
	C69.641335,79.085121 66.879677,79.626404 63.808899,80.155823 
	C63.017345,80.476738 62.534912,80.809532 61.816078,81.342072 
	C60.797913,81.764938 60.016151,81.988068 59.234394,82.211197 
z"/>
<path fill="#FFFFFF" opacity="0.000000" stroke="none" 
	d="
M105.531342,1.000001 
	C99.097542,2.459032 92.163239,3.783157 85.298958,5.403893 
	C68.661957,9.332081 54.099789,17.318314 41.146259,28.366589 
	C20.283571,46.160713 7.116863,68.331169 3.002968,95.611519 
	C2.363097,99.854668 2.047521,104.146729 1.290991,108.708084 
	C1.000000,73.074089 1.000000,37.148174 1.000000,1.000000 
	C35.687244,1.000000 70.374962,1.000000 105.531342,1.000001 
z"/>
<path fill="#FFFFFF" opacity="0.000000" stroke="none" 
	d="
M41.351204,179.608154 
	C49.777702,184.695465 58.758568,188.223160 68.805679,189.648926 
	C46.403881,190.000000 23.807760,190.000000 1.000000,190.000000 
	C1.000000,165.979523 1.000000,141.958420 0.999999,117.468658 
	C1.993393,122.276848 2.696751,127.628342 4.032068,132.817200 
	C8.938354,151.882324 20.179203,166.480484 36.258831,177.528519 
	C37.183655,178.163956 38.364819,178.426315 39.791992,178.830017 
	C40.157303,178.797745 40.125729,178.818604 40.227493,179.090302 
	C40.669907,179.444031 41.010555,179.526093 41.351204,179.608154 
z"/>
<path fill="#FFFFFF" opacity="1.000000" stroke="none" 
	d="
M81.468536,190.000000 
	C84.354919,188.128693 87.645142,186.120514 91.110306,184.482407 
	C91.975464,184.073395 93.530327,184.613907 94.549324,185.141083 
	C97.005638,186.411850 99.332497,187.932800 101.855789,189.676422 
	C95.312355,190.000000 88.624710,190.000000 81.468536,190.000000 
z"/>
<path fill="#FFFFFF" opacity="1.000000" stroke="none" 
	d="
M110.468399,190.000000 
	C112.895332,188.261566 115.709869,186.358307 118.731339,184.877197 
	C119.741295,184.382141 121.454163,184.604706 122.541870,185.129272 
	C125.035370,186.331757 127.341782,187.922165 129.862076,189.677551 
	C123.645599,190.000000 117.291206,190.000000 110.468399,190.000000 
z"/>
<path fill="#FFFFFF" opacity="1.000000" stroke="none" 
	d="
M138.468414,190.000000 
	C141.019730,188.146957 143.982239,186.187210 147.099396,184.515884 
	C147.879639,184.097534 149.326157,184.292618 150.174850,184.748581 
	C152.768341,186.141937 155.219803,187.799652 157.863266,189.677246 
	C151.645599,190.000000 145.291214,190.000000 138.468414,190.000000 
z"/>
<path fill="#FFFFFF" opacity="1.000000" stroke="none" 
	d="
M166.468414,190.000000 
	C168.899826,188.261719 171.718491,186.357269 174.745255,184.878922 
	C175.749008,184.388657 177.453918,184.646439 178.548615,185.169006 
	C181.041275,186.358917 183.354568,187.924561 185.870392,189.668762 
	C179.645599,190.000000 173.291214,190.000000 166.468414,190.000000 
z"/>
<path fill="#029BBE" opacity="1.000000" stroke="none" 
	d="
M64.118019,80.167686 
	C66.879677,79.626404 69.641335,79.085121 72.694427,78.319931 
	C76.449760,79.465378 79.941483,80.769287 83.368065,82.226387 
	C85.775810,83.250252 87.991043,85.061211 90.474197,85.506844 
	C96.458656,86.580833 100.712898,80.940071 98.281502,75.352562 
	C97.443260,73.426239 96.000946,71.728706 94.668442,70.059273 
	C92.487976,67.327477 90.257019,63.924774 92.857903,61.165813 
	C94.911293,58.987621 98.829842,57.620335 101.905067,57.646572 
	C104.457199,57.668343 107.137802,60.038368 109.493065,61.739712 
	C113.234276,64.442215 116.751823,67.454338 120.554642,70.587296 
	C106.696114,82.848236 106.800049,107.551079 116.793976,121.253494 
	C122.053825,128.465149 129.190475,129.388046 136.715866,124.281601 
	C138.075928,123.358727 139.340439,122.295029 139.839005,121.914558 
	C145.537369,123.816002 150.612427,126.031059 155.918655,127.141609 
	C161.899689,128.393387 166.833572,125.532745 170.020508,121.882103 
	C176.400742,124.325638 182.222244,126.555176 189.017960,129.157837 
	C189.017960,136.487106 189.017960,145.245911 189.061859,154.469666 
	C174.355835,159.378510 160.496536,157.481079 148.051529,148.353699 
	C143.691635,145.156097 140.037277,140.926041 136.355865,136.897736 
	C133.745926,134.041870 132.458481,136.188004 130.741409,137.734589 
	C123.885048,143.910187 116.263306,148.799713 106.650627,147.876648 
	C102.424141,147.470795 98.404816,145.092377 94.238449,143.777435 
	C92.742256,143.305222 90.518402,142.556335 89.598251,143.240509 
	C80.364677,150.105972 70.967743,149.324860 61.474159,144.193420 
	C38.810448,131.943344 36.303501,101.251854 56.581608,85.241631 
	C57.469265,84.540802 58.201035,83.642525 59.119904,82.523705 
	C60.016151,81.988068 60.797913,81.764938 62.104977,81.290298 
	C63.126190,80.748413 63.622105,80.458046 64.118019,80.167686 
z"/>
<path fill="#DEE5E8" opacity="1.000000" stroke="none" 
	d="
M64.458801,26.357630 
	C65.753403,28.106575 66.967827,29.662399 67.418762,31.414700 
	C67.539902,31.885471 64.599335,33.830318 64.326225,33.600277 
	C62.980442,32.466686 61.597065,30.943615 61.194984,29.318489 
	C61.011307,28.576115 63.057285,27.282089 64.458801,26.357630 
z"/>
<path fill="#DEE5E8" opacity="1.000000" stroke="none" 
	d="
M48.538609,58.380768 
	C48.603905,60.127522 48.656338,61.812260 47.970257,63.105087 
	C47.762203,63.497139 45.031113,63.252449 44.325836,62.492172 
	C43.530212,61.634495 43.715954,59.866444 43.474876,58.494335 
	C45.063976,58.385647 46.653072,58.276958 48.538609,58.380768 
z"/>
<path fill="#DDE5E8" opacity="1.000000" stroke="none" 
	d="
M47.595879,37.235222 
	C47.835529,39.066715 47.701969,40.766548 47.568409,42.466377 
	C46.222061,41.866955 44.107838,41.606052 43.667496,40.607216 
	C42.090611,37.030338 44.624481,36.875275 47.595879,37.235222 
z"/>
<path fill="#00BDF1" opacity="1.000000" stroke="none" 
	d="
M63.808899,80.155823 
	C63.622105,80.458046 63.126190,80.748413 62.341381,81.090553 
	C62.534912,80.809532 63.017345,80.476738 63.808899,80.155823 
z"/>
<path fill="#B3DCF2" opacity="1.000000" stroke="none" 
	d="
M41.200050,179.410049 
	C41.010555,179.526093 40.669907,179.444031 40.237129,179.099731 
	C40.494095,178.846893 40.795395,178.971725 41.200050,179.410049 
z"/>
</svg>